<svg width="130" height="40" viewBox="0 0 130 40" fill="none" xmlns="http://www.w3.org/2000/svg">
<path d="M0 6C0 2.68629 2.68629 0 6 0H124C127.314 0 130 2.68629 130 6V34C130 37.3137 127.314 40 124 40H6C2.68629 40 0 37.3137 0 34V6Z" fill="black"/>
<path fillRule="evenodd" clipRule="evenodd" d="M25.7689 20.5804C25.7907 18.8839 26.6801 17.3169 28.1254 16.4284C27.2095 15.1202 25.7304 14.3206 24.1343 14.2707C22.455 14.0944 20.8271 15.2755 19.9714 15.2755C19.0991 15.2755 17.7816 14.2882 16.3629 14.3174C14.4962 14.3777 12.7981 15.4133 11.89 17.0452C9.95595 20.3937 11.3985 25.3147 13.2512 28.0213C14.1781 29.3467 15.2613 30.8271 16.6788 30.7746C18.0658 30.7171 18.5839 29.8901 20.2582 29.8901C21.9169 29.8901 22.403 30.7746 23.8492 30.7412C25.3376 30.7171 26.2753 29.41 27.1697 28.0721C27.8357 27.1277 28.3481 26.084 28.6881 24.9796C26.9204 24.2319 25.7709 22.4998 25.7689 20.5804Z" fill="white"/>
<path fillRule="evenodd" clipRule="evenodd" d="M23.0372 12.4906C23.8487 11.5164 24.2485 10.2642 24.1517 9C22.9119 9.13022 21.7666 9.72278 20.9442 10.6596C20.132 11.5839 19.7205 12.7932 19.8004 14.021C21.0569 14.0339 22.2499 13.4699 23.0372 12.4906Z" fill="white"/>
<path d="M45.22 10.009H46.075C46.027 9.667 45.925 9.367 45.769 9.109C45.613 8.845 45.418 8.626 45.184 8.452C44.95 8.278 44.683 8.146 44.383 8.056C44.083 7.966 43.765 7.921 43.429 7.921C42.937 7.921 42.499 8.011 42.115 8.191C41.737 8.365 41.419 8.605 41.161 8.911C40.909 9.217 40.717 9.577 40.585 9.991C40.453 10.399 40.387 10.837 40.387 11.305C40.387 11.773 40.447 12.211 40.567 12.619C40.693 13.027 40.879 13.381 41.125 13.681C41.371 13.981 41.68 14.218 42.052 14.392C42.424 14.56 42.859 14.644 43.357 14.644C44.179 14.644 44.827 14.419 45.301 13.969C45.775 13.519 46.054 12.889 46.138 12.079H45.283C45.265 12.343 45.211 12.589 45.121 12.817C45.031 13.045 44.905 13.243 44.743 13.411C44.587 13.573 44.398 13.702 44.176 13.798C43.96 13.888 43.711 13.933 43.429 13.933C43.045 13.933 42.715 13.861 42.439 13.717C42.163 13.573 41.935 13.381 41.755 13.141C41.581 12.895 41.452 12.61 41.368 12.286C41.284 11.956 41.242 11.608 41.242 11.242C41.242 10.906 41.284 10.582 41.368 10.27C41.452 9.958 41.581 9.682 41.755 9.442C41.935 9.196 42.16 9.001 42.43 8.857C42.706 8.713 43.036 8.641 43.42 8.641C43.87 8.641 44.257 8.755 44.581 8.983C44.911 9.211 45.124 9.553 45.22 10.009ZM47.8091 12.178C47.8091 11.896 47.8451 11.647 47.9171 11.431C47.9951 11.209 48.1001 11.023 48.2321 10.873C48.3641 10.723 48.5171 10.609 48.6911 10.531C48.8711 10.453 49.0601 10.414 49.2581 10.414C49.4561 10.414 49.6421 10.453 49.8161 10.531C49.9961 10.609 50.1521 10.723 50.2841 10.873C50.4161 11.023 50.5181 11.209 50.5901 11.431C50.6681 11.647 50.7071 11.896 50.7071 12.178C50.7071 12.46 50.6681 12.712 50.5901 12.934C50.5181 13.15 50.4161 13.333 50.2841 13.483C50.1521 13.627 49.9961 13.738 49.8161 13.816C49.6421 13.894 49.4561 13.933 49.2581 13.933C49.0601 13.933 48.8711 13.894 48.6911 13.816C48.5171 13.738 48.3641 13.627 48.2321 13.483C48.1001 13.333 47.9951 13.15 47.9171 12.934C47.8451 12.712 47.8091 12.46 47.8091 12.178ZM46.9991 12.178C46.9991 12.52 47.0471 12.838 47.1431 13.132C47.2391 13.426 47.3831 13.684 47.5751 13.906C47.7671 14.122 48.0041 14.293 48.2861 14.419C48.5681 14.539 48.8921 14.599 49.2581 14.599C49.6301 14.599 49.9541 14.539 50.2301 14.419C50.5121 14.293 50.7491 14.122 50.9411 13.906C51.1331 13.684 51.2771 13.426 51.3731 13.132C51.4691 12.838 51.5171 12.52 51.5171 12.178C51.5171 11.836 51.4691 11.518 51.3731 11.224C51.2771 10.924 51.1331 10.666 50.9411 10.45C50.7491 10.228 50.5121 10.054 50.2301 9.928C49.9541 9.802 49.6301 9.739 49.2581 9.739C48.8921 9.739 48.5681 9.802 48.2861 9.928C48.0041 10.054 47.7671 10.228 47.5751 10.45C47.3831 10.666 47.2391 10.924 47.1431 11.224C47.0471 11.518 46.9991 11.836 46.9991 12.178ZM52.5991 9.847V14.5H53.3641V11.872C53.3641 11.662 53.3911 11.47 53.4451 11.296C53.5051 11.116 53.5921 10.96 53.7061 10.828C53.8201 10.696 53.9611 10.594 54.1291 10.522C54.3031 10.45 54.5071 10.414 54.7411 10.414C55.0351 10.414 55.2661 10.498 55.4341 10.666C55.6021 10.834 55.6861 11.062 55.6861 11.35V14.5H56.4511V11.44C56.4511 11.188 56.4241 10.96 56.3701 10.756C56.3221 10.546 56.2351 10.366 56.1091 10.216C55.9831 10.066 55.8181 9.949 55.6141 9.865C55.4101 9.781 55.1551 9.739 54.8491 9.739C54.1591 9.739 53.6551 10.021 53.3371 10.585H53.3191V9.847H52.5991ZM58.2481 13.033H57.4831C57.4951 13.321 57.5551 13.567 57.6631 13.771C57.7711 13.969 57.9151 14.131 58.0951 14.257C58.2751 14.377 58.4821 14.464 58.7161 14.518C58.9501 14.572 59.1961 14.599 59.4541 14.599C59.6881 14.599 59.9221 14.575 60.1561 14.527C60.3961 14.485 60.6091 14.407 60.7951 14.293C60.9871 14.179 61.1401 14.029 61.2541 13.843C61.3741 13.657 61.4341 13.423 61.4341 13.141C61.4341 12.919 61.3891 12.733 61.2991 12.583C61.2151 12.433 61.1011 12.31 60.9571 12.214C60.8191 12.112 60.6571 12.031 60.4711 11.971C60.2911 11.911 60.1051 11.86 59.9131 11.818C59.7331 11.776 59.5531 11.737 59.3731 11.701C59.1931 11.659 59.0311 11.611 58.8871 11.557C58.7431 11.497 58.6231 11.425 58.5271 11.341C58.4371 11.251 58.3921 11.14 58.3921 11.008C58.3921 10.888 58.4221 10.792 58.4821 10.72C58.5421 10.642 58.6201 10.582 58.7161 10.54C58.8121 10.492 58.9171 10.459 59.0311 10.441C59.1511 10.423 59.2681 10.414 59.3821 10.414C59.5081 10.414 59.6311 10.429 59.7511 10.459C59.8771 10.483 59.9911 10.525 60.0931 10.585C60.1951 10.645 60.2791 10.726 60.3451 10.828C60.4111 10.924 60.4501 11.047 60.4621 11.197H61.2271C61.2091 10.915 61.1491 10.681 61.0471 10.495C60.9451 10.303 60.8071 10.153 60.6331 10.045C60.4651 9.931 60.2701 9.853 60.0481 9.811C59.8261 9.763 59.5831 9.739 59.3191 9.739C59.1151 9.739 58.9081 9.766 58.6981 9.82C58.4941 9.868 58.3081 9.946 58.1401 10.054C57.9781 10.156 57.8431 10.291 57.7351 10.459C57.6331 10.627 57.5821 10.828 57.5821 11.062C57.5821 11.362 57.6571 11.596 57.8071 11.764C57.9571 11.932 58.1431 12.064 58.3651 12.16C58.5931 12.25 58.8391 12.322 59.1031 12.376C59.3671 12.424 59.6101 12.481 59.8321 12.547C60.0601 12.607 60.2491 12.688 60.3991 12.79C60.5491 12.892 60.6241 13.042 60.6241 13.24C60.6241 13.384 60.5881 13.504 60.5161 13.6C60.4441 13.69 60.3511 13.759 60.2371 13.807C60.1291 13.855 60.0091 13.888 59.8771 13.906C59.7451 13.924 59.6191 13.933 59.4991 13.933C59.3431 13.933 59.1901 13.918 59.0401 13.888C58.8961 13.858 58.7641 13.81 58.6441 13.744C58.5301 13.672 58.4371 13.579 58.3651 13.465C58.2931 13.345 58.2541 13.201 58.2481 13.033ZM62.5051 14.5H63.2701V9.847H62.5051V14.5ZM64.1791 7.57L62.9101 9.028H62.3341L63.1981 7.57H64.1791ZM68.6492 14.104V9.847H67.9292V10.513H67.9202C67.7822 10.255 67.5902 10.063 67.3442 9.937C67.0982 9.805 66.8282 9.739 66.5342 9.739C66.1322 9.739 65.7932 9.817 65.5172 9.973C65.2412 10.123 65.0192 10.318 64.8512 10.558C64.6832 10.792 64.5632 11.056 64.4912 11.35C64.4192 11.638 64.3832 11.92 64.3832 12.196C64.3832 12.514 64.4252 12.817 64.5092 13.105C64.5992 13.387 64.7312 13.636 64.9052 13.852C65.0792 14.062 65.2952 14.23 65.5532 14.356C65.8112 14.482 66.1142 14.545 66.4622 14.545C66.7622 14.545 67.0442 14.479 67.3082 14.347C67.5782 14.209 67.7792 13.996 67.9112 13.708H67.9292V14.014C67.9292 14.272 67.9022 14.509 67.8482 14.725C67.8002 14.941 67.7192 15.124 67.6052 15.274C67.4912 15.43 67.3472 15.55 67.1732 15.634C66.9992 15.724 66.7862 15.769 66.5342 15.769C66.4082 15.769 66.2762 15.754 66.1382 15.724C66.0002 15.7 65.8712 15.658 65.7512 15.598C65.6372 15.538 65.5382 15.46 65.4542 15.364C65.3762 15.268 65.3342 15.151 65.3282 15.013H64.5632C64.5752 15.265 64.6412 15.478 64.7612 15.652C64.8812 15.826 65.0312 15.967 65.2112 16.075C65.3972 16.183 65.6012 16.261 65.8232 16.309C66.0512 16.357 66.2732 16.381 66.4892 16.381C67.2332 16.381 67.7792 16.192 68.1272 15.814C68.4752 15.436 68.6492 14.866 68.6492 14.104ZM66.5072 13.879C66.2552 13.879 66.0452 13.828 65.8772 13.726C65.7092 13.618 65.5742 13.48 65.4722 13.312C65.3702 13.138 65.2982 12.946 65.2562 12.736C65.2142 12.526 65.1932 12.316 65.1932 12.106C65.1932 11.884 65.2172 11.671 65.2652 11.467C65.3192 11.263 65.4002 11.083 65.5082 10.927C65.6222 10.771 65.7662 10.648 65.9402 10.558C66.1142 10.462 66.3242 10.414 66.5702 10.414C66.8102 10.414 67.0142 10.462 67.1822 10.558C67.3502 10.654 67.4852 10.783 67.5872 10.945C67.6952 11.101 67.7732 11.278 67.8212 11.476C67.8692 11.674 67.8932 11.875 67.8932 12.079C67.8932 12.295 67.8662 12.511 67.8122 12.727C67.7642 12.943 67.6862 13.138 67.5782 13.312C67.4702 13.48 67.3262 13.618 67.1462 13.726C66.9722 13.828 66.7592 13.879 66.5072 13.879ZM73.8351 14.5V9.847H73.0701V12.475C73.0701 12.685 73.0401 12.88 72.9801 13.06C72.9261 13.234 72.8421 13.387 72.7281 13.519C72.6141 13.651 72.4701 13.753 72.2961 13.825C72.1281 13.897 71.9271 13.933 71.6931 13.933C71.3991 13.933 71.1681 13.849 71.0001 13.681C70.8321 13.513 70.7481 13.285 70.7481 12.997V9.847H69.9831V12.907C69.9831 13.159 70.0071 13.39 70.0551 13.6C70.1091 13.804 70.1991 13.981 70.3251 14.131C70.4511 14.281 70.6161 14.398 70.8201 14.482C71.0241 14.56 71.2791 14.599 71.5851 14.599C71.9271 14.599 72.2241 14.533 72.4761 14.401C72.7281 14.263 72.9351 14.05 73.0971 13.762H73.1151V14.5H73.8351ZM78.3951 11.728H75.7221C75.7341 11.548 75.7731 11.38 75.8391 11.224C75.9051 11.062 75.9951 10.921 76.1091 10.801C76.2231 10.681 76.3581 10.588 76.5141 10.522C76.6761 10.45 76.8561 10.414 77.0541 10.414C77.2461 10.414 77.4201 10.45 77.5761 10.522C77.7381 10.588 77.8761 10.681 77.9901 10.801C78.1101 10.915 78.2031 11.053 78.2691 11.215C78.3411 11.377 78.3831 11.548 78.3951 11.728ZM79.1331 13.024H78.3771C78.3111 13.33 78.1731 13.558 77.9631 13.708C77.7591 13.858 77.4951 13.933 77.1711 13.933C76.9191 13.933 76.7001 13.891 76.5141 13.807C76.3281 13.723 76.1751 13.612 76.0551 13.474C75.9351 13.33 75.8481 13.168 75.7941 12.988C75.7401 12.802 75.7161 12.607 75.7221 12.403H79.2051C79.2171 12.121 79.1901 11.824 79.1241 11.512C79.0641 11.2 78.9501 10.912 78.7821 10.648C78.6201 10.384 78.4011 10.168 78.1251 10C77.8551 9.826 77.5131 9.739 77.0991 9.739C76.7811 9.739 76.4871 9.799 76.2171 9.919C75.9531 10.039 75.7221 10.207 75.5241 10.423C75.3321 10.639 75.1821 10.894 75.0741 11.188C74.9661 11.482 74.9121 11.806 74.9121 12.16C74.9241 12.514 74.9751 12.841 75.0651 13.141C75.1611 13.441 75.3021 13.699 75.4881 13.915C75.6741 14.131 75.9021 14.299 76.1721 14.419C76.4481 14.539 76.7721 14.599 77.1441 14.599C77.6721 14.599 78.1101 14.467 78.4581 14.203C78.8061 13.939 79.0311 13.546 79.1331 13.024ZM80.2231 8.074V14.5H80.9881V8.074H80.2231ZM82.9112 12.178C82.9112 11.896 82.9472 11.647 83.0192 11.431C83.0972 11.209 83.2022 11.023 83.3342 10.873C83.4662 10.723 83.6192 10.609 83.7932 10.531C83.9732 10.453 84.1622 10.414 84.3602 10.414C84.5582 10.414 84.7442 10.453 84.9182 10.531C85.0982 10.609 85.2542 10.723 85.3862 10.873C85.5182 11.023 85.6202 11.209 85.6922 11.431C85.7702 11.647 85.8092 11.896 85.8092 12.178C85.8092 12.46 85.7702 12.712 85.6922 12.934C85.6202 13.15 85.5182 13.333 85.3862 13.483C85.2542 13.627 85.0982 13.738 84.9182 13.816C84.7442 13.894 84.5582 13.933 84.3602 13.933C84.1622 13.933 83.9732 13.894 83.7932 13.816C83.6192 13.738 83.4662 13.627 83.3342 13.483C83.2022 13.333 83.0972 13.15 83.0192 12.934C82.9472 12.712 82.9112 12.46 82.9112 12.178ZM82.1012 12.178C82.1012 12.52 82.1492 12.838 82.2452 13.132C82.3412 13.426 82.4852 13.684 82.6772 13.906C82.8692 14.122 83.1062 14.293 83.3882 14.419C83.6702 14.539 83.9942 14.599 84.3602 14.599C84.7322 14.599 85.0562 14.539 85.3322 14.419C85.6142 14.293 85.8512 14.122 86.0432 13.906C86.2352 13.684 86.3792 13.426 86.4752 13.132C86.5712 12.838 86.6192 12.52 86.6192 12.178C86.6192 11.836 86.5712 11.518 86.4752 11.224C86.3792 10.924 86.2352 10.666 86.0432 10.45C85.8512 10.228 85.6142 10.054 85.3322 9.928C85.0562 9.802 84.7322 9.739 84.3602 9.739C83.9942 9.739 83.6702 9.802 83.3882 9.928C83.1062 10.054 82.8692 10.228 82.6772 10.45C82.4852 10.666 82.3412 10.924 82.2452 11.224C82.1492 11.518 82.1012 11.836 82.1012 12.178ZM93.6171 11.728H90.9441C90.9561 11.548 90.9951 11.38 91.0611 11.224C91.1271 11.062 91.2171 10.921 91.3311 10.801C91.4451 10.681 91.5801 10.588 91.7361 10.522C91.8981 10.45 92.0781 10.414 92.2761 10.414C92.4681 10.414 92.6421 10.45 92.7981 10.522C92.9601 10.588 93.0981 10.681 93.2121 10.801C93.3321 10.915 93.4251 11.053 93.4911 11.215C93.5631 11.377 93.6051 11.548 93.6171 11.728ZM94.3551 13.024H93.5991C93.5331 13.33 93.3951 13.558 93.1851 13.708C92.9811 13.858 92.7171 13.933 92.3931 13.933C92.1411 13.933 91.9221 13.891 91.7361 13.807C91.5501 13.723 91.3971 13.612 91.2771 13.474C91.1571 13.33 91.0701 13.168 91.0161 12.988C90.9621 12.802 90.9381 12.607 90.9441 12.403H94.4271C94.4391 12.121 94.4121 11.824 94.3461 11.512C94.2861 11.2 94.1721 10.912 94.0041 10.648C93.8421 10.384 93.6231 10.168 93.3471 10C93.0771 9.826 92.7351 9.739 92.3211 9.739C92.0031 9.739 91.7091 9.799 91.4391 9.919C91.1751 10.039 90.9441 10.207 90.7461 10.423C90.5541 10.639 90.4041 10.894 90.2961 11.188C90.1881 11.482 90.1341 11.806 90.1341 12.16C90.1461 12.514 90.1971 12.841 90.2871 13.141C90.3831 13.441 90.5241 13.699 90.7101 13.915C90.8961 14.131 91.1241 14.299 91.3941 14.419C91.6701 14.539 91.9941 14.599 92.3661 14.599C92.8941 14.599 93.3321 14.467 93.6801 14.203C94.0281 13.939 94.2531 13.546 94.3551 13.024ZM95.4001 9.847V14.5H96.1651V11.872C96.1651 11.662 96.1921 11.47 96.2461 11.296C96.3061 11.116 96.3931 10.96 96.5071 10.828C96.6211 10.696 96.7621 10.594 96.9301 10.522C97.1041 10.45 97.3081 10.414 97.5421 10.414C97.8361 10.414 98.0671 10.498 98.2351 10.666C98.4031 10.834 98.4871 11.062 98.4871 11.35V14.5H99.2521V11.44C99.2521 11.188 99.2251 10.96 99.1711 10.756C99.1231 10.546 99.0361 10.366 98.9101 10.216C98.7841 10.066 98.6191 9.949 98.4151 9.865C98.2111 9.781 97.9561 9.739 97.6501 9.739C96.9601 9.739 96.4561 10.021 96.1381 10.585H96.1201V9.847H95.4001ZM106.497 11.728H103.824C103.836 11.548 103.875 11.38 103.941 11.224C104.007 11.062 104.097 10.921 104.211 10.801C104.325 10.681 104.46 10.588 104.616 10.522C104.778 10.45 104.958 10.414 105.156 10.414C105.348 10.414 105.522 10.45 105.678 10.522C105.84 10.588 105.978 10.681 106.092 10.801C106.212 10.915 106.305 11.053 106.371 11.215C106.443 11.377 106.485 11.548 106.497 11.728ZM107.235 13.024H106.479C106.413 13.33 106.275 13.558 106.065 13.708C105.861 13.858 105.597 13.933 105.273 13.933C105.021 13.933 104.802 13.891 104.616 13.807C104.43 13.723 104.277 13.612 104.157 13.474C104.037 13.33 103.95 13.168 103.896 12.988C103.842 12.802 103.818 12.607 103.824 12.403H107.307C107.319 12.121 107.292 11.824 107.226 11.512C107.166 11.2 107.052 10.912 106.884 10.648C106.722 10.384 106.503 10.168 106.227 10C105.957 9.826 105.615 9.739 105.201 9.739C104.883 9.739 104.589 9.799 104.319 9.919C104.055 10.039 103.824 10.207 103.626 10.423C103.434 10.639 103.284 10.894 103.176 11.188C103.068 11.482 103.014 11.806 103.014 12.16C103.026 12.514 103.077 12.841 103.167 13.141C103.263 13.441 103.404 13.699 103.59 13.915C103.776 14.131 104.004 14.299 104.274 14.419C104.55 14.539 104.874 14.599 105.246 14.599C105.774 14.599 106.212 14.467 106.56 14.203C106.908 13.939 107.133 13.546 107.235 13.024ZM108.325 8.074V14.5H109.09V8.074H108.325Z" fill="white"/>
<path d="M56.9199 21.9766C59.2177 21.9766 60.7324 23.793 60.7324 26.5987C60.7324 29.4122 59.2266 31.2198 56.9541 31.2198C55.7795 31.2812 54.6731 30.666 54.1055 29.6358H54.0625V34.1202H52.2041V22.0713H54.0029V23.5772H54.0371C54.6299 22.5534 55.7375 21.9385 56.9199 21.9766ZM66.8847 21.9766C69.1826 21.9766 70.6973 23.793 70.6973 26.5987C70.6973 29.4122 69.1914 31.2198 66.9189 31.2198C65.7443 31.2812 64.6379 30.666 64.0703 29.6358H64.0273V34.1202H62.1689V22.0713H63.9677V23.5772H64.0019C64.5947 22.5534 65.7023 21.9385 66.8847 21.9766ZM80.2266 18.5C82.8506 18.5 84.6494 19.9717 84.71 22.1143H82.834C82.7217 20.875 81.6972 20.127 80.2002 20.127C78.7031 20.127 77.6787 20.8838 77.6787 21.9854C77.6787 22.8633 78.333 23.3799 79.9336 23.7754L81.3017 24.1113C83.8496 24.7138 84.9082 25.7373 84.9082 27.5537C84.9082 29.8769 83.0576 31.332 80.1142 31.332C77.3603 31.332 75.501 29.9111 75.3808 27.665L77.2832 27.6651C77.4209 28.8965 78.6172 29.7051 80.2519 29.7051C81.8184 29.7051 82.9453 28.8965 82.9453 27.7861C82.9453 26.8223 82.2656 26.2451 80.6562 25.8496L79.0469 25.4619C76.7666 24.9111 75.708 23.8447 75.708 22.1143C75.708 19.9717 77.5752 18.5 80.2266 18.5ZM95.9317 21.96C98.5567 21.96 100.227 23.75 100.227 26.5987C100.227 29.4551 98.5655 31.2374 95.9317 31.2374C93.2988 31.2374 91.6377 29.4551 91.6377 26.5987C91.6377 23.7501 93.3155 21.96 95.9317 21.96ZM110.98 21.96C113.485 21.96 115.061 23.6807 115.061 26.4258V27.0625H108.666V27.1749C108.606 27.8489 108.839 28.5161 109.305 29.0067C109.771 29.4974 110.425 29.7642 111.102 29.7393C112.003 29.8238 112.854 29.3059 113.192 28.4659L114.957 28.4659C114.707 30.1094 113.106 31.2374 111.059 31.2374C108.425 31.2374 106.79 29.4727 106.79 26.6416C106.79 23.8018 108.434 21.96 110.98 21.96ZM88.9189 19.9288V22.0713H90.6406V23.543H88.9189V28.5342C88.9189 29.3096 89.2637 29.6709 90.0205 29.6709C90.2249 29.6674 90.429 29.653 90.6318 29.6279V31.0908C90.2916 31.1544 89.9457 31.1832 89.5996 31.1768C87.7666 31.1768 87.0518 30.4883 87.0518 28.7324V23.543H85.7354V22.0713H87.0517V19.9288H88.9189ZM46.5664 18.7071L51.0498 31.1251H49.0107L47.875 27.7686H43.1416L42.0049 31.1251H40L44.4834 18.7071H46.5664ZM105.752 21.9766C105.966 21.9759 106.18 21.9991 106.389 22.0459V23.7842C106.118 23.7016 105.836 23.6637 105.554 23.6719C105.007 23.6498 104.479 23.8675 104.106 24.268C103.734 24.6684 103.555 25.2116 103.617 25.7549V31.125H101.759V22.0713H103.531V23.6123H103.574C103.821 22.6203 104.73 21.9376 105.752 21.9766ZM95.9317 23.4913C94.4258 23.4913 93.5313 24.6534 93.5313 26.5987C93.5313 28.5606 94.4258 29.7051 95.9317 29.7051C97.4375 29.7051 98.333 28.5606 98.333 26.5987C98.333 24.6446 97.4375 23.4913 95.9317 23.4913ZM56.4297 23.5606C55.0098 23.5606 54.0547 24.7911 54.0547 26.5987C54.0547 28.4229 55.0098 29.6446 56.4297 29.6446C57.875 29.6446 58.8223 28.4483 58.8223 26.5987C58.8223 24.7657 57.875 23.5606 56.4297 23.5606ZM66.3945 23.5606C64.9746 23.5606 64.0195 24.7911 64.0195 26.5987C64.0195 28.4229 64.9746 29.6446 66.3945 29.6446C67.8398 29.6446 68.7871 28.4483 68.7871 26.5987C68.7871 24.7657 67.8398 23.5606 66.3945 23.5606ZM45.5342 20.7725H45.4825L43.6318 26.2198H47.3838L45.5342 20.7725ZM110.98 23.4659C110.369 23.4622 109.782 23.7029 109.349 24.1344C108.916 24.5659 108.673 25.1525 108.675 25.7637H113.201C113.235 25.1581 113.014 24.5658 112.593 24.1296C112.171 23.6934 111.587 23.4528 110.98 23.4659Z" fill="white"/>
<path d="M6 1H124V-1H6V1ZM129 6V34H131V6H129ZM124 39H6V41H124V39ZM1 34V6H-1V34H1ZM6 39C3.23858 39 1 36.7614 1 34H-1C-1 37.866 2.13401 41 6 41V39ZM129 34C129 36.7614 126.761 39 124 39V41C127.866 41 131 37.866 131 34H129ZM124 1C126.761 1 129 3.23858 129 6H131C131 2.13401 127.866 -1 124 -1V1ZM6 -1C2.13401 -1 -1 2.13401 -1 6H1C1 3.23858 3.23858 1 6 1V-1Z" fill="#A6A6A6"/>
</svg>
