<svg width="130" height="40" viewBox="0 0 130 40" fill="none" xmlns="http://www.w3.org/2000/svg">
<path d="M0 6C0 2.68629 2.68629 0 6 0H124C127.314 0 130 2.68629 130 6V34C130 37.3137 127.314 40 124 40H6C2.68629 40 0 37.3137 0 34V6Z" fill="black"/>
<path fillRule="evenodd" clipRule="evenodd" d="M9.43502 7.547C9.14402 7.855 8.97302 8.332 8.97302 8.951V31.049C8.97302 31.668 9.14402 32.145 9.43502 32.453L9.50902 32.525L21.888 20.146V19.854L9.50902 7.475L9.43502 7.547Z" fill="#00D7FE"/>
<mask id="mask0_101_106" style="mask-type:alpha" maskUnits="userSpaceOnUse" x="21" y="15" width="12" height="10">
<path d="M26.013 24.274L21.888 20.146V19.854L26.015 15.727L30.997 18.557C32.393 19.351 32.393 20.649 30.997 21.442L26.108 24.22L26.013 24.274Z" fill="white"/>
</mask>
<g mask="url(#mask0_101_106)">
<path fillRule="evenodd" clipRule="evenodd" d="M26.013 24.274L21.888 20.146V19.854L26.015 15.727L30.997 18.557C32.393 19.351 32.393 20.649 30.997 21.442L26.108 24.22L26.013 24.274Z" fill="url(#paint0_linear_101_106)"/>
</g>
<mask id="mask1_101_106" style="mask-type:alpha" maskUnits="userSpaceOnUse" x="9" y="20" width="18" height="13">
<path d="M26.108 24.22L21.888 20L9.435 32.453C9.896 32.94 10.656 33 11.512 32.514L26.108 24.22Z" fill="white"/>
</mask>
<g mask="url(#mask1_101_106)">
<path fillRule="evenodd" clipRule="evenodd" d="M26.108 24.22L21.888 20L9.435 32.453C9.896 32.94 10.656 33 11.512 32.514L26.108 24.22Z" fill="url(#paint1_linear_101_106)"/>
</g>
<mask id="mask2_101_106" style="mask-type:alpha" maskUnits="userSpaceOnUse" x="9" y="7" width="18" height="13">
<path d="M26.108 15.78L11.512 7.486C10.656 7 9.896 7.06 9.435 7.547L21.888 20L26.108 15.78Z" fill="white"/>
</mask>
<g mask="url(#mask2_101_106)">
<path fillRule="evenodd" clipRule="evenodd" d="M26.108 15.78L11.512 7.486C10.656 7 9.896 7.06 9.435 7.547L21.888 20L26.108 15.78Z" fill="url(#paint2_linear_101_106)"/>
</g>
<path fillRule="evenodd" clipRule="evenodd" d="M103.894 30.953H105.76V18.452H103.894V30.953ZM120.701 22.955L118.562 28.375H118.498L116.278 22.955H114.268L117.597 30.53L115.699 34.744H117.646L122.776 22.955H120.701ZM110.119 29.533C109.507 29.533 108.655 29.228 108.655 28.472C108.655 27.507 109.717 27.137 110.633 27.137C111.454 27.137 111.839 27.314 112.338 27.555C112.193 28.713 111.196 29.533 110.119 29.533ZM110.344 22.682C108.993 22.682 107.594 23.277 107.015 24.596L108.671 25.287C109.025 24.596 109.684 24.37 110.376 24.37C111.341 24.37 112.322 24.949 112.338 25.979V26.107C112 25.914 111.277 25.625 110.392 25.625C108.607 25.625 106.789 26.606 106.789 28.439C106.789 30.112 108.253 31.19 109.893 31.19C111.148 31.19 111.839 30.627 112.274 29.967H112.338V30.932H114.139V26.14C114.139 23.92 112.483 22.682 110.344 22.682ZM98.812 24.477H96.158V20.192H98.812C100.207 20.192 100.999 21.347 100.999 22.334C100.999 23.303 100.207 24.477 98.812 24.477ZM98.764 18.452H94.293V30.953H96.158V26.217H98.764C100.832 26.217 102.865 24.719 102.865 22.334C102.865 19.949 100.832 18.452 98.764 18.452ZM74.383 29.535C73.094 29.535 72.015 28.456 72.015 26.974C72.015 25.476 73.094 24.38 74.383 24.38C75.656 24.38 76.654 25.476 76.654 26.974C76.654 28.456 75.656 29.535 74.383 29.535ZM76.525 23.655H76.461C76.042 23.156 75.237 22.705 74.222 22.705C72.095 22.705 70.146 24.573 70.146 26.974C70.146 29.358 72.095 31.211 74.222 31.211C75.237 31.211 76.042 30.76 76.461 30.244H76.525V30.856C76.525 32.484 75.656 33.354 74.254 33.354C73.11 33.354 72.401 32.532 72.111 31.839L70.484 32.516C70.951 33.644 72.192 35.029 74.254 35.029C76.445 35.029 78.298 33.74 78.298 30.599V22.962H76.525V23.655ZM79.587 30.953H81.456V18.451H79.587V30.953ZM84.21 26.829C84.162 25.186 85.483 24.348 86.433 24.348C87.175 24.348 87.803 24.718 88.012 25.25L84.21 26.829ZM90.01 25.411C89.656 24.461 88.576 22.705 86.369 22.705C84.178 22.705 82.358 24.428 82.358 26.958C82.358 29.342 84.162 31.211 86.578 31.211C88.528 31.211 89.656 30.019 90.123 29.326L88.673 28.359C88.19 29.068 87.529 29.535 86.578 29.535C85.628 29.535 84.951 29.1 84.516 28.247L90.203 25.895L90.01 25.411ZM44.702 24.01V25.814H49.019C48.89 26.829 48.552 27.57 48.037 28.086C47.408 28.714 46.425 29.406 44.702 29.406C42.044 29.406 39.965 27.264 39.965 24.606C39.965 21.947 42.044 19.805 44.702 19.805C46.136 19.805 47.183 20.369 47.956 21.094L49.229 19.821C48.149 18.79 46.716 18 44.702 18C41.061 18 38 20.965 38 24.606C38 28.247 41.061 31.211 44.702 31.211C46.667 31.211 48.149 30.567 49.309 29.358C50.501 28.166 50.872 26.491 50.872 25.137C50.872 24.718 50.84 24.332 50.775 24.01H44.702ZM55.781 29.535C54.492 29.535 53.38 28.472 53.38 26.958C53.38 25.427 54.492 24.38 55.781 24.38C57.069 24.38 58.181 25.427 58.181 26.958C58.181 28.472 57.069 29.535 55.781 29.535ZM55.781 22.705C53.428 22.705 51.511 24.493 51.511 26.958C51.511 29.406 53.428 31.211 55.781 31.211C58.133 31.211 60.05 29.406 60.05 26.958C60.05 24.493 58.133 22.705 55.781 22.705ZM65.094 29.535C63.805 29.535 62.693 28.472 62.693 26.958C62.693 25.427 63.805 24.38 65.094 24.38C66.383 24.38 67.494 25.427 67.494 26.958C67.494 28.472 66.383 29.535 65.094 29.535ZM65.094 22.705C62.742 22.705 60.825 24.493 60.825 26.958C60.825 29.406 62.742 31.211 65.094 31.211C67.446 31.211 69.363 29.406 69.363 26.958C69.363 24.493 67.446 22.705 65.094 22.705Z" fill="#FFFFFE"/>
<path d="M38.7427 14V7.60156H40.5488C41.1055 7.60156 41.5977 7.72461 42.0254 7.9707C42.4531 8.2168 42.7827 8.56689 43.0142 9.021C43.2485 9.4751 43.3672 9.99658 43.3701 10.5854V10.9941C43.3701 11.5977 43.2529 12.1265 43.0186 12.5806C42.7871 13.0347 42.4546 13.3833 42.021 13.6265C41.5903 13.8696 41.0879 13.9941 40.5137 14H38.7427ZM39.5864 8.2959V13.3101H40.4741C41.1245 13.3101 41.6299 13.1079 41.9902 12.7036C42.3535 12.2993 42.5352 11.7236 42.5352 10.9766V10.603C42.5352 9.87646 42.3638 9.3125 42.021 8.91113C41.6812 8.50684 41.1978 8.30176 40.5708 8.2959H39.5864ZM45.2842 14H44.4404V7.60156H45.2842V14ZM48.4463 11.1479C47.7227 10.9399 47.1954 10.6851 46.8643 10.3833C46.5362 10.0786 46.3721 9.70361 46.3721 9.2583C46.3721 8.75439 46.5728 8.33838 46.9742 8.01025C47.3785 7.6792 47.9029 7.51367 48.5474 7.51367C48.9869 7.51367 49.378 7.59863 49.7207 7.76855C50.0664 7.93848 50.333 8.17285 50.5205 8.47168C50.711 8.77051 50.8062 9.09717 50.8062 9.45166H49.958C49.958 9.06494 49.835 8.76172 49.5889 8.54199C49.3428 8.31934 48.9956 8.20801 48.5474 8.20801C48.1314 8.20801 47.8062 8.30029 47.5718 8.48486C47.3404 8.6665 47.2246 8.91992 47.2246 9.24512C47.2246 9.50586 47.3345 9.72705 47.5542 9.90869C47.7769 10.0874 48.1534 10.2515 48.6836 10.4009C49.2168 10.5503 49.6329 10.7158 49.9317 10.8975C50.2334 11.0762 50.4561 11.2856 50.5996 11.5259C50.7461 11.7661 50.8194 12.0488 50.8194 12.374C50.8194 12.8926 50.6172 13.3086 50.2129 13.6221C49.8086 13.9326 49.2681 14.0879 48.5913 14.0879C48.1519 14.0879 47.7417 14.0044 47.3609 13.8374C46.98 13.6675 46.6856 13.436 46.4776 13.1431C46.2725 12.8501 46.17 12.5176 46.17 12.1455H47.0181C47.0181 12.5322 47.1602 12.8384 47.4444 13.064C47.7315 13.2866 48.1138 13.3979 48.5913 13.3979C49.0367 13.3979 49.378 13.3071 49.6153 13.1255C49.8526 12.9438 49.9712 12.6963 49.9712 12.3828C49.9712 12.0693 49.8614 11.8276 49.6416 11.6577C49.4219 11.4849 49.0235 11.3149 48.4463 11.1479ZM52.4786 11.4951V14H51.6348V7.60156H53.9947C54.6949 7.60156 55.2427 7.78027 55.6382 8.1377C56.0367 8.49512 56.2359 8.96826 56.2359 9.55713C56.2359 10.1782 56.0411 10.6572 55.6514 10.9941C55.2647 11.3281 54.7095 11.4951 53.9859 11.4951H52.4786ZM52.4786 10.8052H53.9947C54.4459 10.8052 54.7916 10.6997 55.0318 10.4888C55.272 10.2749 55.3921 9.96729 55.3921 9.56592C55.3921 9.18506 55.272 8.88037 55.0318 8.65186C54.7916 8.42334 54.462 8.30469 54.043 8.2959H52.4786V10.8052ZM61.9644 11.0073C61.9644 11.6343 61.859 12.1821 61.648 12.6509C61.4371 13.1167 61.1383 13.4727 60.7515 13.7188C60.3648 13.9648 59.9137 14.0879 59.398 14.0879C58.8941 14.0879 58.4473 13.9648 58.0577 13.7188C57.668 13.4697 57.3648 13.1167 57.148 12.6597C56.9342 12.1997 56.8243 11.668 56.8184 11.0645V10.603C56.8184 9.98779 56.9254 9.44434 57.1392 8.97266C57.3531 8.50098 57.6549 8.14062 58.0445 7.8916C58.4371 7.63965 58.8853 7.51367 59.3892 7.51367C59.9019 7.51367 60.3531 7.63818 60.7428 7.88721C61.1353 8.1333 61.4371 8.49219 61.648 8.96387C61.859 9.43262 61.9644 9.979 61.9644 10.603V11.0073ZM61.1251 10.5942C61.1251 9.83545 60.9727 9.25391 60.668 8.84961C60.3634 8.44238 59.9371 8.23877 59.3892 8.23877C58.856 8.23877 58.4356 8.44238 58.128 8.84961C57.8233 9.25391 57.6666 9.81641 57.6578 10.5371V11.0073C57.6578 11.7427 57.8116 12.3213 58.1192 12.7432C58.4298 13.1621 58.856 13.3716 59.398 13.3716C59.9429 13.3716 60.3648 13.1738 60.6637 12.7783C60.9625 12.3799 61.1163 11.8101 61.1251 11.0688V10.5942ZM67.8775 14H67.0294L63.8082 9.06934V14H62.9601V7.60156H63.8082L67.0382 12.5542V7.60156H67.8775V14ZM70.0113 14H69.1676V7.60156H70.0113V14ZM71.2882 14V7.60156H73.38C74.0744 7.60156 74.5958 7.74512 74.9445 8.03223C75.296 8.31934 75.4718 8.74414 75.4718 9.30664C75.4718 9.60547 75.3869 9.87061 75.2169 10.1021C75.047 10.3306 74.8156 10.5078 74.5226 10.6338C74.8683 10.7305 75.1408 10.915 75.34 11.1875C75.5421 11.457 75.6432 11.7793 75.6432 12.1543C75.6432 12.7285 75.4572 13.1797 75.0851 13.5078C74.713 13.8359 74.1871 14 73.5075 14H71.2882ZM72.132 11.0073V13.3101H73.525C73.9176 13.3101 74.2267 13.209 74.4523 13.0068C74.6808 12.8018 74.7951 12.5205 74.7951 12.1631C74.7951 11.3926 74.3761 11.0073 73.5382 11.0073H72.132ZM72.132 10.3306H73.4064C73.7755 10.3306 74.07 10.2383 74.2897 10.0537C74.5123 9.86914 74.6237 9.61865 74.6237 9.30225C74.6237 8.95068 74.5211 8.6958 74.3161 8.5376C74.111 8.37646 73.799 8.2959 73.38 8.2959H72.132V10.3306ZM77.4738 13.3101H80.506V14H76.6256V7.60156H77.4738V13.3101ZM84.8151 11.0425H82.0422V13.3101H85.2634V14H81.1984V7.60156H85.2194V8.2959H82.0422V10.3525H84.8151V11.0425ZM91.6228 11.0425H88.8498V13.3101H92.071V14H88.0061V7.60156H92.0271V8.2959H88.8498V10.3525H91.6228V11.0425ZM97.7688 14H96.9206L93.6995 9.06934V14H92.8513V7.60156H93.6995L96.9294 12.5542V7.60156H97.7688V14Z" fill="white"/>
<path d="M6 1H124V-1H6V1ZM129 6V34H131V6H129ZM124 39H6V41H124V39ZM1 34V6H-1V34H1ZM6 39C3.23858 39 1 36.7614 1 34H-1C-1 37.866 2.13401 41 6 41V39ZM129 34C129 36.7614 126.761 39 124 39V41C127.866 41 131 37.866 131 34H129ZM124 1C126.761 1 129 3.23858 129 6H131C131 2.13401 127.866 -1 124 -1V1ZM6 -1C2.13401 -1 -1 2.13401 -1 6H1C1 3.23858 3.23858 1 6 1V-1Z" fill="#A6A6A6"/>
<defs>
<linearGradient id="paint0_linear_101_106" x1="30.0888" y1="20.0003" x2="21.888" y2="20.0003" gradientUnits="userSpaceOnUse">
<stop stop-color="#FFBC00"/>
<stop offset="1" stop-color="#FFDA03"/>
</linearGradient>
<linearGradient id="paint1_linear_101_106" x1="23.8146" y1="23.9708" x2="13.1111" y2="32.7933" gradientUnits="userSpaceOnUse">
<stop stop-color="#E22652"/>
<stop offset="1" stop-color="#FF3A44"/>
</linearGradient>
<linearGradient id="paint2_linear_101_106" x1="11.3207" y1="9.04616" x2="18.4569" y2="15.3211" gradientUnits="userSpaceOnUse">
<stop stop-color="#0ED574"/>
<stop offset="1" stop-color="#07F076"/>
</linearGradient>
</defs>
</svg>
