<svg width="29" height="24" viewBox="0 0 29 24" fill="none" xmlns="http://www.w3.org/2000/svg">
<path d="M24.6138 18.3V12.434C24.6138 11.1786 24.6138 10.5509 24.4404 9.98145C24.287 9.47728 24.0354 9.00841 23.7002 8.60178C23.3215 8.14245 22.7985 7.7954 21.7525 7.10128L17.6036 4.3482C16.3244 3.4993 15.6847 3.07485 14.9938 2.9099C14.3831 2.76412 13.7468 2.76412 13.1361 2.9099C12.4452 3.07485 11.8055 3.4993 10.5263 4.3482L6.37743 7.10128L6.37743 7.10129C5.33142 7.7954 4.80842 8.14245 4.42974 8.60178C4.0945 9.00841 3.84293 9.47728 3.68946 9.98145C3.51611 10.5509 3.51611 11.1786 3.51611 12.434V18.3C3.51611 19.4201 3.51611 19.9802 3.7341 20.408C3.92585 20.7843 4.23181 21.0903 4.60813 21.282C5.03596 21.5 5.59601 21.5 6.71611 21.5H7.83762C7.95369 21.5 8.01172 21.5 8.06076 21.4976C9.08817 21.4471 9.90974 20.6255 9.96022 19.5981C9.96262 19.5491 9.96262 19.4911 9.96262 19.375V17.1023C9.96262 14.8367 11.7993 13 14.0649 13C16.3306 13 18.1673 14.8367 18.1673 17.1023V19.375C18.1673 19.4911 18.1673 19.5491 18.1697 19.5981C18.2202 20.6255 19.0417 21.4471 20.0691 21.4976C20.1182 21.5 20.1762 21.5 20.2923 21.5H21.4138C22.5339 21.5 23.0939 21.5 23.5218 21.282C23.8981 21.0903 24.2041 20.7843 24.3958 20.408C24.6138 19.9802 24.6138 19.4201 24.6138 18.3Z" stroke="currentColor" stroke-width="1.8"/>
</svg>
