<svg width="72" height="72" viewBox="0 0 72 72" fill="none" xmlns="http://www.w3.org/2000/svg">
<path d="M21.3464 48.3399C22.2199 48.3399 22.9281 47.6317 22.9281 46.7582C22.9281 45.8846 22.2199 45.1765 21.3464 45.1765C20.4728 45.1765 19.7646 45.8846 19.7646 46.7582C19.7646 47.6317 20.4728 48.3399 21.3464 48.3399Z" fill="#373737"/>
<path d="M32.4104 49.4118L29.647 49.9351L30.1703 52.6985L32.9337 52.1752L32.4104 49.4118Z" fill="#373737"/>
<path d="M51.4862 37.4915L48.7856 36.7059L48 39.4064L50.7005 40.1921L51.4862 37.4915Z" fill="#373737"/>
<path d="M50.0746 53.0209L47.374 52.2353L46.5884 54.9358L49.2889 55.7215L50.0746 53.0209Z" fill="#373737"/>
<path fill-rule="evenodd" clip-rule="evenodd" d="M50.5782 40.8875C50.0029 42.3715 48.3141 44.1996 44.3644 45.834C42.4578 46.623 41.4131 47.4746 40.8177 48.3344C40.2211 49.1959 40.0498 50.1012 39.9627 51.0533C39.9433 51.2653 39.9281 51.4822 39.9128 51.7022C39.8606 52.4489 39.806 53.2309 39.5739 53.9784C39.2647 54.9744 38.6425 55.9245 37.3341 56.7754C34.6931 58.4928 31.5118 58.119 28.5969 56.2946C25.6871 54.4734 22.9907 51.1857 21.2 46.947C21.1297 46.7806 21.2209 46.5939 21.4036 46.5299C21.5863 46.4659 21.7914 46.5489 21.8617 46.7153C23.6158 50.8673 26.2366 54.034 28.9986 55.7627C31.7554 57.4882 34.6002 57.76 36.922 56.2501C38.095 55.4874 38.6248 54.6625 38.8917 53.8029C39.1012 53.1278 39.1497 52.4396 39.2013 51.7071C39.2175 51.476 39.2341 51.2405 39.2562 50.9997C39.3463 50.0154 39.5294 48.9845 40.2179 47.9902C40.9075 46.9944 42.0783 46.071 44.071 45.2464C47.9199 43.6537 49.4215 41.9319 49.9096 40.6727C50.1546 40.0408 50.1477 39.5198 50.0546 39.1724C50.0075 38.9967 49.9412 38.8751 49.8844 38.8053C49.865 38.7815 49.8504 38.7677 49.8412 38.7601C49.6682 38.7387 49.5349 38.6037 49.5349 38.4404C49.5349 38.2621 49.6936 38.1176 49.8894 38.1176C50.149 38.1176 50.3408 38.282 50.4538 38.4208C50.5798 38.5755 50.6796 38.7816 50.7434 39.0194C50.8718 39.499 50.8649 40.1479 50.5782 40.8875ZM49.8299 38.7521C49.8299 38.7521 49.8307 38.7524 49.8322 38.7534C49.8306 38.7527 49.8298 38.7522 49.8299 38.7521Z" fill="#373737"/>
<path d="M15.5239 57.8713C16.3006 57.8713 16.9302 57.2417 16.9302 56.4651C16.9302 55.6884 16.3006 55.0588 15.5239 55.0588C14.7473 55.0588 14.1177 55.6884 14.1177 56.4651C14.1177 57.2417 14.7473 57.8713 15.5239 57.8713Z" fill="#373737"/>
<path d="M55.0532 39.5184C55.8299 39.5184 56.4595 38.8888 56.4595 38.1121C56.4595 37.3355 55.8299 36.7059 55.0532 36.7059C54.2766 36.7059 53.647 37.3355 53.647 38.1121C53.647 38.8888 54.2766 39.5184 55.0532 39.5184Z" fill="#373737"/>
<path d="M48.4837 22.4042L15.9508 15.6421L15.528 15.5544C15.3127 15.5093 15.089 15.5255 14.8825 15.601C14.676 15.6764 14.4952 15.8082 14.3609 15.9811C14.2265 16.154 14.1441 16.361 14.123 16.5783C14.102 16.7956 14.1432 17.0144 14.2419 17.2095L27.2979 43.1244C27.3823 43.2909 27.5059 43.4348 27.6582 43.544C27.8104 43.6533 27.9869 43.7246 28.1727 43.752C28.3592 43.7797 28.5496 43.7619 28.7275 43.7002C28.9054 43.6385 29.0656 43.5347 29.194 43.3979L38.0982 33.9718C38.1615 33.9031 38.2385 33.8481 38.3243 33.8103C38.4101 33.7725 38.5029 33.7528 38.5967 33.7523C38.7243 33.7497 38.8502 33.7817 38.9608 33.8447C39.0715 33.9076 39.1629 33.9993 39.2251 34.1098L41.0806 37.4669C41.1991 37.6908 41.3897 37.8689 41.622 37.9729C41.8543 38.0769 42.1151 38.1007 42.3627 38.0407L42.3718 38.0387C42.6224 37.9844 42.8474 37.8482 43.0106 37.6518C43.1737 37.4554 43.2656 37.2103 43.2714 36.9558L43.5925 29.1793C43.5963 29.0823 43.6202 28.987 43.6626 28.8995C43.7082 28.8129 43.7703 28.7359 43.8455 28.6728L48.9895 24.4325C49.1586 24.2931 49.2847 24.1093 49.3533 23.9021C49.422 23.6949 49.4303 23.4727 49.3775 23.261C49.3247 23.0493 49.2129 22.8567 49.0548 22.7051C48.8967 22.5536 48.6988 22.4493 48.4837 22.4042V22.4042ZM48.6922 24.0763L43.5481 28.3166C43.4811 28.3709 43.4204 28.4324 43.3672 28.5001C43.3193 28.5603 43.278 28.6255 43.244 28.6944C43.2083 28.7649 43.1804 28.839 43.1605 28.9153L43.1611 28.9176C43.1401 28.9971 43.1283 29.0788 43.1257 29.161L42.8047 36.9375C42.8025 37.0904 42.748 37.238 42.65 37.356C42.5521 37.4741 42.4166 37.5555 42.2658 37.587L42.2612 37.588C42.1126 37.6256 41.9556 37.6122 41.8157 37.5502C41.6757 37.4881 41.561 37.3809 41.4901 37.2461L39.6341 33.8867C39.5385 33.7139 39.3999 33.5682 39.2316 33.4635C39.0633 33.3587 38.8708 33.2984 38.6724 33.2882L38.6702 33.2887C38.6435 33.2876 38.6169 33.2864 38.5908 33.2876C38.4057 33.2887 38.2237 33.3347 38.0606 33.4215C37.9467 33.4812 37.8439 33.5598 37.7569 33.6541L28.8528 43.0802C28.7756 43.1618 28.6796 43.2237 28.573 43.2607C28.4665 43.2976 28.3525 43.3085 28.2408 43.2924C28.1291 43.2763 28.023 43.2336 27.9315 43.1681C27.8399 43.1026 27.7657 43.0162 27.715 42.9161L14.6591 17.0013C14.6008 16.8842 14.5767 16.7532 14.5897 16.6232C14.6027 16.4932 14.6523 16.3694 14.7328 16.266C14.8132 16.1626 14.9213 16.0837 15.0448 16.0382C15.1682 15.9928 15.302 15.9827 15.431 16.0091L15.8638 16.0992L48.3866 22.8589C48.5157 22.8859 48.6346 22.9483 48.7296 23.0392C48.8246 23.13 48.8919 23.2456 48.9238 23.3726C48.9557 23.4997 48.9509 23.633 48.9099 23.7575C48.8689 23.8819 48.7935 23.9924 48.6922 24.0763L48.6922 24.0763Z" fill="#373737" stroke="#373737" stroke-width="0.4"/>
<path d="M43.7646 28.8589L43.574 29.2709L43.4544 29.2208L43.4539 29.2186L16.0019 17.3952L38.9631 33.473L38.9653 33.4725L39.0261 33.517L38.7527 33.8823L38.3535 33.6022L15.7263 17.7611C15.6373 17.7001 15.5732 17.611 15.5451 17.5092C15.517 17.4074 15.5266 17.2994 15.5723 17.2037C15.618 17.1081 15.6969 17.0309 15.7953 16.9854C15.8938 16.9399 16.0056 16.9291 16.1115 16.9548C16.1374 16.9607 16.1627 16.9691 16.1869 16.9799L43.6606 28.8147L43.7646 28.8589Z" fill="#373737" stroke="#373737" stroke-width="0.4"/>
</svg>
