<svg width="14" height="14" viewBox="0 0 14 14" fill="none" xmlns="http://www.w3.org/2000/svg">
<path d="M7.14059 6.00187H13.7242C13.7968 6.40748 13.8332 6.79493 13.8332 7.16421C13.8332 8.47791 13.5577 9.65085 13.0068 10.683C12.4559 11.7152 11.6704 12.5219 10.6503 13.1031C9.63025 13.6843 8.46034 13.9748 7.14059 13.9748C6.19013 13.9748 5.28507 13.7917 4.42542 13.4255C3.56577 13.0592 2.82416 12.5643 2.20061 11.9407C1.57706 11.3172 1.08216 10.5756 0.715895 9.71593C0.349634 8.85628 0.166504 7.95122 0.166504 7.00076C0.166504 6.0503 0.349634 5.14524 0.715895 4.28559C1.08216 3.42593 1.57706 2.68433 2.20061 2.06078C2.82416 1.43723 3.56577 0.942324 4.42542 0.576063C5.28507 0.209803 6.19013 0.0266724 7.14059 0.0266724C8.95676 0.0266724 10.5156 0.635089 11.8172 1.85192L9.91933 3.67717C9.1747 2.95676 8.24845 2.59655 7.14059 2.59655C6.35964 2.59655 5.63771 2.7933 4.97481 3.1868C4.31191 3.58031 3.78673 4.11456 3.39928 4.78957C3.01183 5.46458 2.81811 6.20164 2.81811 7.00076C2.81811 7.79987 3.01183 8.53693 3.39928 9.21194C3.78673 9.88695 4.31191 10.4212 4.97481 10.8147C5.63771 11.2082 6.35964 11.405 7.14059 11.405C7.66728 11.405 8.15159 11.3323 8.59352 11.187C9.03546 11.0417 9.39869 10.8601 9.68323 10.6422C9.96776 10.4242 10.216 10.176 10.4279 9.89755C10.6397 9.61907 10.7956 9.35572 10.8955 9.10751C10.9954 8.8593 11.0635 8.6232 11.0998 8.39921H7.14059V6.00187Z" fill="#214457"/>
</svg>
