<svg width="217" height="72" viewBox="0 0 217 72" fill="none" xmlns="http://www.w3.org/2000/svg">
<path d="M17.2096 51.5636C17.2096 52.4145 17.0482 53.236 16.7255 54.0282C16.4321 54.7911 15.9626 55.466 15.3171 56.0528C14.6716 56.6396 13.85 57.0944 12.8524 57.4172C11.8548 57.7693 10.6811 57.9453 9.33143 57.9453C7.95238 57.9453 6.70537 57.7693 5.5904 57.4172C4.47542 57.0944 3.58051 56.713 2.90565 56.2729L2.3335 50.6393C3.1844 51.3728 4.19668 51.9743 5.37034 52.4438C6.57333 52.8839 7.80567 53.104 9.06736 53.104C9.74221 53.104 10.2557 52.9719 10.6078 52.7079C10.9892 52.4145 11.1799 52.0624 11.1799 51.6516C11.1799 51.1528 10.9892 50.7713 10.6078 50.5073C10.2263 50.2432 9.65418 49.9644 8.89131 49.671C7.0428 49.0255 5.5904 48.1599 4.5341 47.0743C3.50715 45.9887 2.99368 44.6536 2.99368 43.0692C2.99368 42.1596 3.16973 41.3234 3.52182 40.5605C3.87392 39.7683 4.37273 39.0934 5.01824 38.536C5.66375 37.9785 6.4413 37.553 7.35088 37.2596C8.26047 36.9368 9.25808 36.7755 10.3437 36.7755C11.576 36.7755 12.6764 36.9222 13.6446 37.2156C14.6129 37.4797 15.3318 37.7584 15.8012 38.0518L15.3171 42.9372C14.8183 42.5851 14.1728 42.277 13.3805 42.0129C12.5883 41.7195 11.7081 41.5728 10.7398 41.5728C10.153 41.5728 9.6982 41.7048 9.37544 41.9689C9.05269 42.233 8.89131 42.5704 8.89131 42.9812C8.89131 43.392 9.06736 43.7294 9.41945 43.9935C9.77155 44.2575 10.3877 44.5363 11.268 44.8297C13.2045 45.4459 14.6716 46.3114 15.6692 47.4264C16.6961 48.5414 17.2096 49.9204 17.2096 51.5636Z" fill="#214457"/>
<path d="M42.8501 57.5052H38.4489L35.8082 49.627C35.5734 49.0108 35.3534 48.38 35.148 47.7345C34.9719 47.0596 34.7959 46.3408 34.6199 45.5779H34.5318C34.3558 46.3408 34.1651 47.0596 33.9597 47.7345C33.7836 48.38 33.5929 48.9962 33.3875 49.583L30.7468 57.5052H26.3016L19.3476 37.3916H25.2453L27.7099 44.9177C27.886 45.5045 28.062 46.1207 28.2381 46.7662C28.4141 47.3824 28.5608 48.0132 28.6782 48.6588H28.7662C28.9129 48.0426 29.0743 47.4117 29.2504 46.7662C29.4264 46.0914 29.6025 45.4752 29.7785 44.9177L32.2432 37.3916H37.1285L39.6372 44.8737C39.8426 45.4899 40.0187 46.1207 40.1654 46.7662C40.3121 47.4117 40.4588 48.0426 40.6055 48.6588H40.6935C40.8402 48.0132 40.9869 47.3677 41.1336 46.7222C41.3097 46.0767 41.5004 45.4605 41.7058 44.8737L44.1705 37.3916H49.804L42.8501 57.5052Z" fill="#214457"/>
<path d="M71.3005 44.6977C71.3005 45.3725 71.2272 46.0327 71.0805 46.6782L68.4838 49.2309H58.537C58.6544 49.671 58.8598 50.1258 59.1532 50.5953C59.4466 51.0354 59.828 51.4315 60.2975 51.7836C60.7963 52.1357 61.3831 52.4291 62.058 52.6639C62.7328 52.8986 63.5104 53.016 64.3906 53.016C65.535 53.016 66.5619 52.8839 67.4715 52.6198C68.4104 52.3558 69.3053 51.9743 70.1562 51.4755L69.5841 56.801C68.9092 57.1238 68.073 57.3878 67.0754 57.5932C66.1071 57.8279 64.9628 57.9453 63.6424 57.9453C61.9993 57.9453 60.4736 57.6959 59.0652 57.1971C57.6568 56.6983 56.4244 55.9794 55.3681 55.0405C54.3119 54.1016 53.4756 52.9866 52.8595 51.6956C52.2726 50.3752 51.9792 48.8935 51.9792 47.2504C51.9792 45.6366 52.2579 44.1842 52.8154 42.8932C53.3729 41.6021 54.1211 40.5018 55.0601 39.5922C56.0283 38.6827 57.1286 37.9931 58.361 37.5237C59.6227 37.0249 60.9577 36.7755 62.3661 36.7755C63.7451 36.7755 64.9775 36.9955 66.0631 37.4357C67.1781 37.8758 68.117 38.4626 68.8799 39.1961C69.6721 39.9297 70.2736 40.7806 70.6844 41.7488C71.0952 42.6878 71.3005 43.6707 71.3005 44.6977ZM65.4029 44.6536C65.4029 43.8614 65.1242 43.1719 64.5667 42.5851C64.0385 41.9689 63.305 41.6608 62.3661 41.6608C61.3978 41.6608 60.5322 41.9836 59.7694 42.6291C59.0358 43.2453 58.5517 44.0668 58.317 45.0938H65.3589C65.3882 45.0057 65.4029 44.859 65.4029 44.6536Z" fill="#214457"/>
<path d="M93.1777 44.6977C93.1777 45.3725 93.1043 46.0327 92.9576 46.6782L90.3609 49.2309H80.4142C80.5315 49.671 80.7369 50.1258 81.0303 50.5953C81.3237 51.0354 81.7052 51.4315 82.1746 51.7836C82.6734 52.1357 83.2603 52.4291 83.9351 52.6639C84.61 52.8986 85.3875 53.016 86.2678 53.016C87.4121 53.016 88.439 52.8839 89.3486 52.6198C90.2875 52.3558 91.1825 51.9743 92.0334 51.4755L91.4612 56.801C90.7864 57.1238 89.9501 57.3878 88.9525 57.5932C87.9842 57.8279 86.8399 57.9453 85.5196 57.9453C83.8764 57.9453 82.3507 57.6959 80.9423 57.1971C79.5339 56.6983 78.3016 55.9794 77.2453 55.0405C76.189 54.1016 75.3528 52.9866 74.7366 51.6956C74.1497 50.3752 73.8563 48.8935 73.8563 47.2504C73.8563 45.6366 74.1351 44.1842 74.6926 42.8932C75.2501 41.6021 75.9983 40.5018 76.9372 39.5922C77.9055 38.6827 79.0058 37.9931 80.2381 37.5237C81.4998 37.0249 82.8348 36.7755 84.2432 36.7755C85.6223 36.7755 86.8546 36.9955 87.9402 37.4357C89.0552 37.8758 89.9941 38.4626 90.757 39.1961C91.5492 39.9297 92.1507 40.7806 92.5615 41.7488C92.9723 42.6878 93.1777 43.6707 93.1777 44.6977ZM87.28 44.6536C87.28 43.8614 87.0013 43.1719 86.4438 42.5851C85.9157 41.9689 85.1821 41.6608 84.2432 41.6608C83.2749 41.6608 82.4094 41.9836 81.6465 42.6291C80.913 43.2453 80.4288 44.0668 80.1941 45.0938H87.236C87.2654 45.0057 87.28 44.859 87.28 44.6536Z" fill="#214457"/>
<path d="M110.346 42.6731H104.668V49.8911C104.668 50.654 104.888 51.2408 105.328 51.6516C105.798 52.033 106.399 52.2237 107.133 52.2237C107.984 52.2237 108.673 52.121 109.201 51.9157L108.717 57.1971C108.013 57.5199 107.001 57.6812 105.68 57.6812C104.565 57.6812 103.553 57.5199 102.643 57.1971C101.763 56.845 100.986 56.3609 100.311 55.7447C99.6652 55.1285 99.1664 54.4097 98.8143 53.5881C98.4622 52.7372 98.2862 51.813 98.2862 50.8153V42.6731H94.8972V37.3916H98.4182V33.5186L104.58 31.1859V37.3916H110.83L110.346 42.6731Z" fill="#214457"/>
<path d="M126.44 57.3291V45.4459C126.44 44.7123 126.19 44.0668 125.691 43.5093C125.193 42.9518 124.43 42.6731 123.403 42.6731C122.405 42.6731 121.613 42.9518 121.026 43.5093C120.439 44.0668 120.146 44.7417 120.146 45.5339V57.3291H113.764V25.9925H120.146V38.712C120.791 38.1252 121.539 37.6704 122.39 37.3476C123.241 37.0249 124.283 36.8635 125.515 36.8635C126.601 36.8635 127.599 37.0395 128.508 37.3916C129.418 37.7144 130.195 38.1839 130.841 38.8C131.486 39.4162 131.985 40.1791 132.337 41.0887C132.719 41.9689 132.909 42.9518 132.909 44.0375V57.3291H126.44Z" fill="#214457"/>
<path d="M157.92 47.3824C157.92 48.9375 157.627 50.3606 157.04 51.6516C156.483 52.9426 155.72 54.0576 154.751 54.9965C153.783 55.9354 152.639 56.669 151.318 57.1971C149.998 57.6959 148.59 57.9453 147.093 57.9453C145.597 57.9453 144.188 57.6959 142.868 57.1971C141.548 56.669 140.389 55.9354 139.391 54.9965C138.423 54.0576 137.645 52.9426 137.058 51.6516C136.501 50.3606 136.222 48.9375 136.222 47.3824C136.222 45.8273 136.501 44.4042 137.058 43.1132C137.645 41.7929 138.423 40.6632 139.391 39.7243C140.389 38.7854 141.548 38.0665 142.868 37.5677C144.188 37.0395 145.597 36.7755 147.093 36.7755C148.59 36.7755 149.998 37.0395 151.318 37.5677C152.639 38.0665 153.783 38.7854 154.751 39.7243C155.72 40.6632 156.483 41.7929 157.04 43.1132C157.627 44.4042 157.92 45.8273 157.92 47.3824ZM151.715 47.3824C151.715 46.6489 151.583 45.974 151.318 45.3578C151.084 44.7123 150.746 44.1548 150.306 43.6854C149.895 43.2159 149.411 42.8638 148.854 42.6291C148.296 42.365 147.709 42.233 147.093 42.233C146.477 42.233 145.876 42.365 145.289 42.6291C144.731 42.8638 144.247 43.2159 143.836 43.6854C143.426 44.1548 143.088 44.7123 142.824 45.3578C142.589 45.974 142.472 46.6489 142.472 47.3824C142.472 48.1159 142.589 48.7908 142.824 49.407C143.088 50.0231 143.426 50.5659 143.836 51.0354C144.247 51.4755 144.731 51.8276 145.289 52.0917C145.876 52.3264 146.477 52.4438 147.093 52.4438C147.709 52.4438 148.296 52.3264 148.854 52.0917C149.411 51.8276 149.895 51.4755 150.306 51.0354C150.746 50.5659 151.084 50.0231 151.318 49.407C151.583 48.7908 151.715 48.1159 151.715 47.3824Z" fill="#214457"/>
<path d="M186.076 57.3291V45.0498C186.076 44.3456 185.812 43.7881 185.284 43.3773C184.785 42.9372 184.096 42.7171 183.216 42.7171C182.306 42.7171 181.558 42.9372 180.971 43.3773C180.413 43.8174 180.135 44.4042 180.135 45.1378V57.3291H173.665V45.0498C173.665 44.3456 173.401 43.7881 172.873 43.3773C172.374 42.9372 171.655 42.7171 170.716 42.7171C169.836 42.7171 169.102 42.9372 168.515 43.3773C167.958 43.8174 167.679 44.4042 167.679 45.1378V57.3291H161.209V37.3916H166.887L167.063 39.3722C167.562 38.6973 168.295 38.1105 169.264 37.6117C170.261 37.1129 171.464 36.8635 172.873 36.8635C174.222 36.8635 175.367 37.1129 176.306 37.6117C177.245 38.1105 177.993 38.712 178.55 39.4162C179.137 38.712 180.017 38.1105 181.191 37.6117C182.394 37.1129 183.729 36.8635 185.196 36.8635C187.543 36.8635 189.348 37.509 190.61 38.8C191.901 40.0617 192.546 41.7048 192.546 43.7294V57.3291H186.076Z" fill="#214457"/>
<path d="M215.114 44.6977C215.114 45.3725 215.04 46.0327 214.894 46.6782L212.297 49.2309H202.35C202.468 49.671 202.673 50.1258 202.966 50.5953C203.26 51.0354 203.641 51.4315 204.111 51.7836C204.609 52.1357 205.196 52.4291 205.871 52.6639C206.546 52.8986 207.324 53.016 208.204 53.016C209.348 53.016 210.375 52.8839 211.285 52.6198C212.224 52.3558 213.118 51.9743 213.969 51.4755L213.397 56.801C212.722 57.1238 211.886 57.3878 210.889 57.5932C209.92 57.8279 208.776 57.9453 207.456 57.9453C205.812 57.9453 204.287 57.6959 202.878 57.1971C201.47 56.6983 200.238 55.9794 199.181 55.0405C198.125 54.1016 197.289 52.9866 196.673 51.6956C196.086 50.3752 195.792 48.8935 195.792 47.2504C195.792 45.6366 196.071 44.1842 196.629 42.8932C197.186 41.6021 197.934 40.5018 198.873 39.5922C199.841 38.6827 200.942 37.9931 202.174 37.5237C203.436 37.0249 204.771 36.7755 206.179 36.7755C207.558 36.7755 208.791 36.9955 209.876 37.4357C210.991 37.8758 211.93 38.4626 212.693 39.1961C213.485 39.9297 214.087 40.7806 214.498 41.7488C214.908 42.6878 215.114 43.6707 215.114 44.6977ZM209.216 44.6536C209.216 43.8614 208.937 43.1719 208.38 42.5851C207.852 41.9689 207.118 41.6608 206.179 41.6608C205.211 41.6608 204.345 41.9836 203.583 42.6291C202.849 43.2453 202.365 44.0668 202.13 45.0938H209.172C209.201 45.0057 209.216 44.859 209.216 44.6536Z" fill="#214457"/>
<path fill-rule="evenodd" clip-rule="evenodd" d="M113.098 0L141.446 24.3199H216.31V31.6552H138.436L113.098 10.2142L88.1132 31.6551L76.9656 31.6552L113.098 0Z" fill="#214457"/>
<path fill-rule="evenodd" clip-rule="evenodd" d="M0 64.6647L78.8551 64.6647L86.1905 72L0 72L0 64.6647Z" fill="#214457"/>
</svg>
